<svg version="1.1" id="Layer_1" xmlns="http://www.w3.org/2000/svg" xmlns:xlink="http://www.w3.org/1999/xlink" x="0px" y="0px"
	 width="100%" viewBox="0 0 1024 1024" enable-background="new 0 0 1024 1024" xml:space="preserve">
<path fill="#000000" opacity="1.000000" stroke="none" 
	d="
M356.458313,738.619324 
	C321.450165,718.568298 286.750610,698.717224 252.080673,678.814453 
	C248.187744,676.579651 244.190384,674.390198 240.717026,671.589844 
	C233.777359,665.994568 230.942307,658.293945 230.940536,649.533997 
	C230.920288,549.201355 230.931030,448.868744 230.919922,348.536133 
	C230.918839,338.809937 235.105942,331.951874 243.741364,327.117035 
	C285.603210,303.679413 327.382355,280.092407 369.074768,256.354462 
	C411.353760,232.282547 454.086090,209.027054 496.487091,185.180786 
	C508.056885,178.673950 518.222168,178.498352 529.774414,184.871826 
	C587.684021,216.820984 645.314697,249.256439 702.598877,282.313263 
	C728.426575,297.217560 754.349426,311.960205 780.360291,326.542053 
	C789.836609,331.854492 794.607605,339.155670 794.507019,350.318451 
	C794.289368,374.476227 794.846558,398.639801 794.855957,422.801117 
	C794.864990,445.951355 794.463135,469.101685 794.460815,492.251984 
	C794.458496,515.720764 794.832947,539.189514 794.840210,562.658325 
	C794.846619,583.480713 794.416443,604.303833 794.498474,625.125366 
	C794.535889,634.612976 794.691040,644.093018 794.441284,653.583069 
	C794.199402,662.774780 789.983276,669.495056 782.210205,673.964905 
	C758.525879,687.584167 734.717041,700.987000 711.049133,714.634521 
	C651.885437,748.749817 592.045288,781.700134 533.742554,817.296875 
	C520.829041,825.181152 508.618042,826.422668 494.920135,818.364990 
	C452.708710,793.534729 410.101654,769.376953 367.644928,744.963806 
	C364.034821,742.888000 360.399323,740.856262 356.458313,738.619324 
M455.131378,618.421753 
	C452.080414,616.711426 449.018707,615.019897 445.980164,613.287720 
	C428.327362,603.224426 410.687073,593.139099 393.026642,583.089172 
	C387.186584,579.765808 385.411102,580.864075 385.334503,587.736084 
	C385.328918,588.235901 385.333862,588.735840 385.333862,589.235718 
	C385.335480,631.225220 385.446442,673.215332 385.211975,715.203491 
	C385.179626,721.001709 387.156555,724.263489 392.100525,727.090027 
	C425.354370,746.101440 458.461029,765.370239 491.611572,784.562317 
	C493.599152,785.713013 495.508575,787.669312 497.981293,786.393616 
	C500.618103,785.033325 499.643127,782.264099 499.645630,780.059570 
	C499.694366,737.070374 499.588074,694.080566 499.806458,651.092407 
	C499.833405,645.780457 497.811859,642.855103 493.463409,640.422180 
	C480.820618,633.348450 468.318115,626.023987 455.131378,618.421753 
M617.269104,591.808594 
	C608.735962,596.677063 600.184570,601.514099 591.673218,606.420349 
	C571.189087,618.228333 550.288574,629.309692 530.153503,641.730347 
	C527.448181,643.399170 526.256409,645.357239 526.262512,648.592285 
	C526.345642,692.908569 526.311340,737.225159 526.347778,781.541626 
	C526.352295,787.062195 527.777588,787.915894 532.612061,785.149902 
	C542.584717,779.444275 552.422424,773.502930 562.386108,767.781311 
	C586.648926,753.848267 610.942383,739.968384 635.250244,726.114014 
	C638.484009,724.270935 640.725708,722.152100 640.717896,717.978210 
	C640.635742,674.161743 640.687744,630.344971 640.637146,586.528381 
	C640.631042,581.226257 638.425598,580.094238 633.626404,582.705444 
	C628.360046,585.570801 623.140930,588.522949 617.269104,591.808594 
M730.305847,671.757324 
	C741.083130,665.770325 751.859436,659.781555 762.638245,653.797241 
	C765.882324,651.996155 767.931702,649.725525 767.920288,645.549255 
	C767.799744,601.383423 767.848816,557.217102 767.793274,513.050964 
	C767.786072,507.288635 766.715820,506.794067 761.730286,509.375275 
	C731.683716,524.931519 702.759644,542.462952 673.471802,559.356873 
	C669.092957,561.882690 667.202942,564.901489 667.226807,570.128235 
	C667.419922,612.460327 667.334717,654.793640 667.342590,697.126587 
	C667.344116,705.291565 669.704285,706.660095 676.938660,702.721130 
	C677.816162,702.243286 678.657104,701.698853 679.528259,701.208801 
	C696.369690,691.734009 712.509338,681.050781 730.305847,671.757324 
M264.582581,508.906281 
	C259.215179,506.390503 258.113800,507.117523 258.106812,513.503784 
	C258.058746,557.331421 258.081390,601.159180 257.957947,644.986511 
	C257.946777,648.961731 259.285034,651.639465 262.720947,653.534241 
	C269.722046,657.395020 276.576721,661.527039 283.635803,665.275940 
	C305.713562,677.000671 327.066620,689.989075 348.754395,702.393311 
	C357.390594,707.332825 358.649719,706.607666 358.650574,696.921143 
	C358.654175,654.926514 358.549347,612.931335 358.780426,570.937927 
	C358.811066,565.371399 357.084900,561.952820 352.285919,559.300964 
	C341.499969,553.340820 330.887054,547.065430 320.243561,540.850159 
	C301.978241,530.184082 283.113800,520.564026 264.582581,508.906281 
M424.250183,393.845367 
	C417.408264,398.309601 409.248413,400.752350 403.433960,406.706207 
	C404.720520,409.607605 407.070984,410.381958 409.035004,411.508575 
	C441.690674,430.240753 474.423798,448.838715 507.003906,467.700989 
	C511.831390,470.495880 515.731140,470.311340 520.399597,467.595093 
	C553.086731,448.576538 585.872925,429.728271 618.614075,410.802399 
	C620.433167,409.750885 622.564697,408.916412 623.000061,406.506836 
	C622.416626,404.833069 621.031799,404.147034 619.734009,403.436340 
	C585.833923,384.871826 552.302673,365.657379 518.941589,346.145996 
	C515.064514,343.878510 511.691803,343.857330 507.755005,346.121307 
	C480.174805,361.981842 452.508759,377.692993 424.250183,393.845367 
M448.659637,582.769409 
	C462.919769,591.039001 477.170166,599.325500 491.444458,607.570618 
	C497.767090,611.222595 499.672089,610.081482 499.674805,602.671265 
	C499.687164,569.022034 499.574799,535.372131 499.797516,501.724335 
	C499.830170,496.796265 497.926086,494.089142 493.931427,491.828766 
	C460.455811,472.886597 427.048645,453.823517 393.584351,434.861267 
	C387.164459,431.223450 385.349365,432.365814 385.345764,439.766632 
	C385.329620,472.749481 385.496307,505.733765 385.197906,538.713867 
	C385.145264,544.533997 387.027527,547.802307 392.004211,550.567566 
	C410.778503,560.999329 429.353424,571.789917 448.659637,582.769409 
M526.311340,505.589691 
	C526.312500,516.415955 526.313049,527.242249 526.314941,538.068542 
	C526.318848,560.054260 526.292847,582.040039 526.348877,604.025635 
	C526.363281,609.678345 528.102722,610.639343 532.985840,607.971558 
	C537.369263,605.576782 541.826111,603.305664 546.120911,600.761169 
	C575.916382,583.109009 606.221436,566.359009 636.554077,549.659790 
	C640.043518,547.738770 640.719177,544.963623 640.712341,541.369446 
	C640.646545,506.891968 640.683716,472.414307 640.664307,437.936707 
	C640.660522,431.158783 639.979126,430.678833 633.973206,434.090912 
	C600.681091,453.004822 567.509094,472.131683 534.119324,490.870880 
	C528.314331,494.128784 525.066223,497.845032 526.311340,505.589691 
M434.092285,356.530579 
	C448.803558,348.375885 463.568390,340.315613 478.200897,332.021942 
	C484.425140,328.494049 484.307587,325.029663 477.860626,321.832062 
	C453.059906,309.531189 429.225830,295.472534 405.607697,281.128204 
	C396.271423,275.457886 389.139282,275.907104 380.082764,281.242157 
	C349.087372,299.501068 317.678558,317.058258 286.423737,334.876617 
	C281.405762,337.737396 281.231689,339.673950 286.071228,342.466553 
	C312.037750,357.450195 338.119720,372.235748 363.984589,387.392151 
	C369.889252,390.852203 374.811798,390.765594 380.627472,387.322845 
	C398.113647,376.971558 415.827728,367.005188 434.092285,356.530579 
M684.475586,373.933380 
	C704.353699,362.436462 724.579163,351.506500 744.872314,338.518677 
	C741.936462,336.623413 740.468445,335.584747 738.917969,334.688995 
	C724.492859,326.355347 710.081909,317.996521 695.611267,309.742462 
	C676.943970,299.094574 658.223145,288.540436 639.531311,277.935608 
	C635.890930,275.870239 632.526672,274.936157 628.377686,277.431824 
	C614.107971,286.015045 599.692993,294.363525 585.206238,302.577209 
	C572.895508,309.557037 560.375732,316.167114 548.014587,323.059418 
	C541.814758,326.516266 541.847839,328.292847 547.861694,331.689453 
	C553.228271,334.720551 558.623718,337.700500 563.986206,340.738678 
	C591.527222,356.342316 619.098389,371.893433 646.563904,387.628845 
	C651.382935,390.389709 655.605347,390.753235 660.459534,387.772339 
	C668.122131,383.066986 676.044067,378.784058 684.475586,373.933380 
M667.348022,501.500000 
	C667.345825,507.329590 667.339478,513.159180 667.342529,518.988770 
	C667.346741,527.079529 669.916565,528.798035 676.925964,524.833313 
	C705.329834,508.767120 733.633301,492.523651 762.016296,476.420380 
	C766.202209,474.045502 768.012939,470.943329 767.980225,465.946014 
	C767.771240,433.968231 767.841675,401.988586 767.824524,370.009552 
	C767.818787,359.295532 766.456116,358.549622 756.935181,363.944580 
	C728.840515,379.864105 701.461487,397.037567 672.826172,412.005493 
	C668.808960,414.105286 667.216736,416.931183 667.249939,421.552307 
	C667.438782,447.867126 667.348389,474.183929 667.348022,501.500000 
M299.682617,496.745575 
	C316.781494,506.402344 333.830719,516.148621 351.008240,525.663513 
	C356.456390,528.681335 358.624359,527.199524 358.631287,520.920410 
	C358.667969,487.622650 358.614899,454.324707 358.710480,421.027191 
	C358.721313,417.253113 357.429840,414.734680 354.116547,412.945709 
	C323.949554,396.657074 294.743256,378.652313 264.394073,362.688049 
	C259.748810,360.244568 258.090240,361.220062 258.081604,366.625916 
	C258.027893,400.256500 258.064484,433.887207 257.992065,467.517731 
	C257.983551,471.464508 259.558655,474.002228 263.008270,475.922546 
	C275.077057,482.640869 287.038940,489.551117 299.682617,496.745575 
M557.932983,286.385895 
	C571.836670,278.513824 585.763672,270.682495 599.631531,262.747925 
	C604.570862,259.921875 604.635864,258.177460 599.998169,255.562805 
	C573.468689,240.605881 546.886169,225.742996 520.388550,210.730148 
	C515.728882,208.090103 511.551819,207.948868 506.808777,210.630066 
	C480.443420,225.534088 453.968323,240.243820 427.563293,255.077850 
	C422.167480,258.109161 422.247314,259.458069 427.791321,262.586151 
	C454.172821,277.471466 480.628387,292.227234 506.905334,307.294647 
	C512.230042,310.347839 516.612366,310.117645 521.743164,307.058563 
	C533.463135,300.070801 545.424194,293.487213 557.932983,286.385895 
z"/>
</svg>